<svg width="16" height="16" viewBox="0 0 16 16" fill="none" xmlns="http://www.w3.org/2000/svg">
<g id="Group 71">
<g id="Circle-right-up (&#229;&#156;&#134;&#229;&#189;&#162;&#229;&#143;&#179;&#228;&#184;&#138;)">
<path id="Vector" d="M7.99998 14.6666C11.6819 14.6666 14.6666 11.6818 14.6666 7.99992C14.6666 4.31802 11.6819 1.33325 7.99998 1.33325C4.31808 1.33325 1.33331 4.31802 1.33331 7.99992C1.33331 11.6818 4.31808 14.6666 7.99998 14.6666Z" fill="#1F3A93" stroke="#1F3A93" stroke-linejoin="round"/>
</g>
<g id="Frame">
<path id="Vector_2" d="M12.575 5.2001C12.55 5.2001 11.85 4.9751 10.975 4.9751C9.525 4.9751 8.475 5.5501 7.925 6.6501C7.775 6.9501 7.7 7.5751 8.3 8.0001C8.075 8.4251 7.95 8.8251 7.85 9.1501C7.825 9.2501 7.8 9.3251 7.775 9.4251C7.625 8.9251 7.425 8.5251 7.2 8.1751C7.4 8.0251 7.5 7.8501 7.55 7.6501C7.625 7.2751 7.35 6.9251 7.325 6.9251C6.775 6.2751 6.075 5.9501 5.275 5.9501C4.2 5.9501 3.325 6.5251 3.3 6.5501L3 6.7501L3.35 6.8751C4.675 7.3501 5.15 8.1001 5.15 8.1001C5.475 8.6251 5.75 8.7751 5.775 8.8001C6 8.9251 6.2 8.9751 6.375 8.9751C6.7 8.9751 6.9 8.8001 7.025 8.5751C7.375 9.1501 7.575 9.8751 7.65 10.7001C7.65 10.8751 7.675 11.0001 7.675 11.0001L8.025 10.9501C8.025 10.8501 8.025 10.7751 8 10.6751C8 10.3751 8 9.8251 8.175 9.2001C8.25 8.8751 8.375 8.5751 8.525 8.2751C8.7 8.5001 8.95 8.7501 9.35 8.7501C9.6 8.7501 9.875 8.6251 10.15 8.3751C10.2 8.3251 10.475 8.0751 10.725 7.4001C10.725 7.4001 11.15 6.2751 12.6 5.4751L13 5.3251L12.575 5.2001ZM6.825 8.2251C6.675 8.0251 6.5 7.8501 6.3 7.6751C5.675 7.1501 5.05 7.0251 5.05 7.0251C4.95 7.0001 4.875 6.9251 4.9 6.8001C4.925 6.7001 5 6.6251 5.1 6.6501C5.125 6.6501 5.8 6.7751 6.525 7.3501C6.675 7.4751 6.85 7.6501 7.025 7.8501C7.25 8.0751 7 8.4501 6.825 8.2251ZM10.575 6.0751C9.8 6.5751 9.2 7.2001 8.775 7.9501C8.65 8.1251 8.35 7.9001 8.525 7.6751C8.925 7.0251 9.5 6.3501 10.4 5.7751C10.475 5.7251 10.6 5.7501 10.65 5.8251C10.675 5.9001 10.65 6.0251 10.575 6.0751Z" fill="white"/>
</g>
</g>
</svg>
