<svg width="20" height="20" viewBox="0 0 20 20" fill="none" xmlns="http://www.w3.org/2000/svg">
<g id="Group 9">
<rect id="Rectangle 42" width="20" height="20" rx="10" fill="#FFAE00"/>
<g id="Frame" clip-path="url(#clip0_6266_1577)">
<path id="Vector" d="M8.02539 11.821C8.02539 11.1625 7.62695 10.5964 7.05859 10.3468V5.48589C7.05859 5.12964 6.77031 4.84136 6.41406 4.84136C6.05781 4.84136 5.76953 5.12964 5.76953 5.48589V10.3468C5.20117 10.5964 4.80273 11.1625 4.80273 11.821C4.80273 12.4796 5.20117 13.0457 5.76953 13.2953V14.507C5.76953 14.8632 6.05781 15.1515 6.41406 15.1515C6.77031 15.1515 7.05859 14.8632 7.05859 14.507V13.2964C7.62695 13.0468 8.02539 12.4808 8.02539 11.821ZM6.41406 12.7878C5.88086 12.7878 5.44727 12.3542 5.44727 11.821C5.44727 11.2878 5.88086 10.8542 6.41406 10.8542C6.94727 10.8542 7.38086 11.2878 7.38086 11.821C7.38086 12.3542 6.94727 12.7878 6.41406 12.7878ZM15.1539 6.42456C15.1539 5.53628 14.4309 4.81323 13.5426 4.81323C12.6543 4.81323 11.9313 5.53628 11.9313 6.42456C11.9313 7.08315 12.3297 7.64917 12.898 7.89878V14.5082C12.898 14.8644 13.1863 15.1527 13.5426 15.1527C13.8988 15.1527 14.1871 14.8644 14.1871 14.5082V7.89878C14.7555 7.64917 15.1539 7.08315 15.1539 6.42456ZM13.5426 7.39136C13.0094 7.39136 12.5758 6.95776 12.5758 6.42456C12.5758 5.89136 13.0094 5.45776 13.5426 5.45776C14.0758 5.45776 14.5094 5.89136 14.5094 6.42456C14.5094 6.95776 14.0758 7.39136 13.5426 7.39136ZM11.268 8.23862C11.268 7.57886 10.8695 7.01284 10.3012 6.76323V5.48589C10.3012 5.12964 10.0129 4.84136 9.65664 4.84136C9.30039 4.84136 9.01211 5.12964 9.01211 5.48589V6.76323C8.44375 7.01167 8.04531 7.57769 8.04531 8.23862C8.04531 8.89839 8.44375 9.4644 9.01211 9.71401V14.5082C9.01211 14.8644 9.30039 15.1527 9.65664 15.1527C10.0129 15.1527 10.3012 14.8644 10.3012 14.5082V9.71284C10.8695 9.4644 11.268 8.89839 11.268 8.23862Z" fill="white"/>
</g>
</g>
<defs>
<clipPath id="clip0_6266_1577">
<rect width="12" height="12" fill="white" transform="translate(4 4)"/>
</clipPath>
</defs>
</svg>
