<svg width="20" height="20" viewBox="0 0 20 20" fill="none" xmlns="http://www.w3.org/2000/svg">
<g id="Frame" clip-path="url(#clip0_6266_1574)">
<path id="Vector" d="M10 20C15.5 20 20 15.5 20 10C20 4.5 15.5 0 10 0C4.5 0 0 4.5 0 10C0 15.5 4.5 20 10 20ZM14.7 8.6C14.5 9.7 14 10.2 13.2 10.3C14.2 10.9 14.7 11.7 14.2 13.2C13.6 15.1 12.1 15.2 10.3 14.9L9.8 16.9L8.7 16.6L9.2 14.6C9.1 14.6 9 14.5 8.8 14.5C8.6 14.5 8.5 14.4 8.3 14.4L7.8 16.4L6.7 16L7.2 14L5 13.5L5.5 12.1L6.3 12.3C6.6 12.4 6.8 12.2 6.8 12L7.6 8.9L8.2 6.7C8.2 6.5 8.1 6.1 7.7 6L6.9 5.8L7.2 4.5L9.5 5L10 3.1L11.1 3.4L10.6 5.3C10.9 5.4 11.2 5.4 11.5 5.5L12 3.6L13 3.9L12.5 5.9C13.9 6.4 14.9 7.1 14.7 8.6ZM9.6 9C10.3 9.2 12.2 9.8 12.5 8.5C12.8 7.3 11.1 6.9 10.3 6.7C10.2 6.7 10.1 6.7 10.1 6.6L9.6 9ZM8.6 12.8C9.5 13.1 11.8 13.8 12.1 12.5C12.4 11.3 10.4 10.8 9.4 10.6C9.3 10.6 9.2 10.6 9.1 10.5L8.6 12.8Z" fill="#FF862A"/>
</g>
<defs>
<clipPath id="clip0_6266_1574">
<rect width="20" height="20" fill="white"/>
</clipPath>
</defs>
</svg>
