<svg width="28" height="20" viewBox="0 0 28 20" fill="none" xmlns="http://www.w3.org/2000/svg">
<g id="Group 48">
<g id="Frame" clip-path="url(#clip0_6266_1636)">
<path id="Vector" d="M0.297871 11.9246C0.392634 12.4055 0.523373 12.8787 0.688984 13.3401H1.50455L0.851211 13.7646C1.09121 14.3446 1.38232 14.8957 1.7223 15.4157L4.91123 13.3379H7.21123L2.4801 16.4223C2.61765 16.5821 2.75994 16.7377 2.90676 16.889L7.28455 14.0357V19.5112C7.67224 19.6212 8.06632 19.7073 8.46455 19.769V11.9246H0.297871ZM11.5356 19.7712C11.9339 19.7095 12.328 19.6234 12.7156 19.5134V14.0979L17.0579 16.9268C17.5023 16.4735 17.9046 15.9779 18.2579 15.4446L15.0223 13.3379H17.3223L18.8801 14.3535C18.9668 14.1757 19.049 13.9957 19.1246 13.8135L18.3956 13.3379H19.309C19.4749 12.8766 19.6056 12.4034 19.7001 11.9223H11.5356V19.7712ZM8.46455 0.229004C8.06632 0.290723 7.67224 0.376809 7.28455 0.486777V6.07789L2.83787 3.18012C2.4201 3.62012 2.04232 4.09789 1.70898 4.60678L4.8601 6.66012H2.5601L1.09121 5.70234C0.993307 5.9067 0.902144 6.11422 0.817871 6.32457L1.33344 6.66012H0.688965C0.524512 7.11566 0.393418 7.58902 0.297852 8.07346H8.46455V0.229004ZM19.7023 8.07568C19.6068 7.59123 19.4756 7.11789 19.3112 6.66234H18.5734L19.1646 6.27789C18.929 5.69789 18.6379 5.14457 18.3023 4.62457L15.1756 6.66234H12.8734L17.5512 3.61346C17.4134 3.45123 17.2734 3.29568 17.1246 3.14234L12.7156 6.01566V0.489004C12.328 0.379036 11.9339 0.29295 11.5356 0.23123V8.07566H19.7023V8.07568Z" fill="white"/>
<path id="Vector_2" d="M0.688965 13.3401C0.740078 13.4846 0.795625 13.6246 0.853418 13.7646L1.50674 13.3401H0.688965ZM0.815625 6.32456C0.771097 6.43552 0.728868 6.5474 0.688965 6.66011H1.33119L0.815625 6.32456ZM17.1245 3.14233C15.9312 1.90233 14.4156 0.973447 12.7156 0.489014V6.01565L17.1245 3.14233ZM7.28453 0.489014C5.56453 0.977881 4.03785 1.92233 2.83785 3.18011L7.28453 6.07788V0.489014ZM2.90672 16.889C4.09561 18.1134 5.59783 19.0312 7.28451 19.5112V14.0357L2.90672 16.889ZM19.3112 6.66231C19.2646 6.53329 19.2157 6.40512 19.1645 6.27786L18.5734 6.66231H19.3112ZM12.7156 19.5112C14.3845 19.0357 15.8734 18.1334 17.0579 16.9268L12.7156 14.0979V19.5112ZM19.1268 13.8134C19.1919 13.6564 19.2534 13.4978 19.3112 13.3379H18.3979L19.1268 13.8134Z" fill="#002377"/>
<path id="Vector_3" d="M11.5357 19.771V11.9266H19.7024C19.8246 11.3044 19.8891 10.6599 19.8891 10.0022C19.8891 9.34438 19.8246 8.69993 19.7024 8.07771H11.5357V0.233252C11.0498 0.156909 10.5588 0.117538 10.0669 0.115479H9.93353C9.43353 0.117686 8.94242 0.159912 8.46465 0.233252V8.07769H0.297969C0.175742 8.69991 0.111328 9.34437 0.111328 10.0021C0.111328 10.6599 0.175781 11.3044 0.297988 11.9266H8.46465V19.771C8.94465 19.8466 9.43353 19.8866 9.93353 19.8888H10.0646C10.5646 19.8844 11.0557 19.8443 11.5357 19.771Z" fill="#C2121F"/>
<path id="Vector_4" d="M15.0222 13.3377L18.2555 15.4444C18.4866 15.0955 18.6955 14.7311 18.8822 14.3533L17.3244 13.3377H15.0222ZM15.1733 6.66219L18.3 4.62441C18.0714 4.27168 17.8206 3.93395 17.5489 3.61328L12.8733 6.66221H15.1733V6.66219ZM4.85998 6.66219L1.70887 4.60887C1.47998 4.95996 1.27332 5.32664 1.08887 5.70441L2.55775 6.66219H4.85998ZM4.91109 13.3377L1.72443 15.4133C1.95553 15.7644 2.20887 16.1022 2.47998 16.42L7.21109 13.3355H4.91109V13.3377Z" fill="#C2121F"/>
</g>
<g id="Frame_2" clip-path="url(#clip1_6266_1636)">
<path id="Vector_5" d="M18.175 6.14059H27.226C27.008 5.62129 26.7497 5.12457 26.4506 4.65537H18.1743V6.14059H18.175ZM25.2088 16.9308H10.7912C11.3331 17.4925 11.9371 17.9913 12.5953 18.416H23.4018C24.0629 17.9913 24.6669 17.4925 25.2088 16.9308ZM18.175 3.07067H25.2081C24.6662 2.50904 24.0622 2.0102 23.4039 1.58545H18.175V3.07067ZM18.175 9.20769H27.9696C27.9294 8.7018 27.8525 8.20578 27.7403 7.72247H18.175V9.20769ZM27.9682 10.7938H8.03174C8.07196 11.2997 8.14886 11.7957 8.26105 12.279H27.7389C27.8511 11.7964 27.9301 11.2997 27.9682 10.7938ZM27.2267 13.8616H8.77329C8.99131 14.3809 9.24955 14.8776 9.54871 15.3468H26.4513C26.7504 14.8769 27.0087 14.3802 27.2267 13.8616Z" fill="white"/>
<path id="Vector_6" d="M23.4041 1.5853C21.89 0.612322 20.0992 0.0351685 18.1752 0.00341797V1.5853H23.4041ZM18.1752 4.65522H26.4536C26.0916 4.08653 25.676 3.55383 25.2111 3.07122H18.178V4.65522H18.1752ZM18.1752 7.72444H27.7412C27.6128 7.17833 27.4421 6.64774 27.229 6.14044H18.1752V7.72444ZM18.1752 10.7937H27.9698C27.9903 10.5333 28.0016 10.268 28.0016 10.0006C28.0016 9.73318 27.9903 9.47001 27.9698 9.20754H18.1752V10.7937ZM27.7391 12.2768H8.26123C8.38964 12.8229 8.56039 13.3534 8.77347 13.8608H27.2262C27.44 13.3534 27.6107 12.8257 27.7391 12.2768ZM26.4515 15.3467H9.54889C9.91085 15.9154 10.3264 16.4481 10.7914 16.9307H25.2089C25.6739 16.4474 26.0895 15.9175 26.4515 15.3467ZM23.4041 18.4159H12.5962C14.1492 19.4136 15.9935 19.9957 17.9734 19.9999H18.0227C20.0068 19.9957 21.8519 19.4136 23.4041 18.4159Z" fill="#EB0000"/>
<path id="Vector_7" d="M18.175 9.2077V0.00358154C18.1256 0.00358154 18.0762 0.00146484 18.0268 0.00146484H17.9774C16.7123 0.00358154 15.5009 0.242063 14.3889 0.675281L14.4764 0.946925H14.9216L14.5597 1.2101L14.6965 1.63485L14.3346 1.37168L13.9726 1.63485L14.1095 1.2101L13.7497 0.946925C11.9039 1.81689 10.3644 3.23508 9.34411 4.99194L9.43371 5.26852H9.88104L9.51979 5.5317L9.65879 5.95645L9.29683 5.69327L8.93488 5.95645L9.07176 5.5317L9.05835 5.52253C8.61314 6.40801 8.29634 7.36758 8.13265 8.37866L8.17569 8.50919H8.62302L8.26106 8.77237L8.40006 9.19712L8.05645 8.94735C8.02046 9.29308 8 9.64586 8 10.0015C8 10.2689 8.01129 10.5321 8.03175 10.7945H18.175V9.2077ZM9.65879 10.2752L9.29683 10.012L8.93488 10.2752L9.07176 9.85047L8.7098 9.5873H9.15713L9.29401 9.16255L9.43301 9.5873H9.88034L9.51838 9.85047L9.65879 10.2752ZM9.51979 7.68862L9.65879 8.11337L9.29683 7.85019L8.93276 8.11548L9.06964 7.69073L8.70768 7.42756H9.15501L9.29189 7.00281L9.43089 7.42756H9.87822L9.51979 7.68862ZM10.7799 8.76955L10.9168 9.1943L10.5549 8.93112L10.1929 9.1943L10.3298 8.76955L9.96783 8.50637H10.4152L10.5542 8.08162L10.6931 8.50637H11.1405L10.7799 8.76955ZM10.7799 6.6098L10.9168 7.03456L10.5556 6.77209L10.1936 7.03456L10.3305 6.6098L9.96853 6.34663H10.4159L10.5549 5.92188L10.6939 6.34663H11.1412L10.7799 6.6098ZM10.7799 4.44865L10.9168 4.8734L10.5556 4.61023L10.1936 4.8734L10.3305 4.44865L9.96853 4.18548H10.4159L10.5556 3.76073L10.6946 4.18548H11.1419L10.7799 4.44865ZM12.1777 10.2752L11.8157 10.012L11.4538 10.2752L11.5927 9.85047L11.2308 9.5873H11.6781L11.815 9.16255L11.9519 9.5873H12.3992L12.0373 9.85047L12.1777 10.2752ZM12.0387 7.68862L12.1777 8.11337L11.8157 7.85019L11.4538 8.11548L11.5927 7.69073L11.2308 7.42756H11.6781L11.815 7.00281L11.9519 7.42756H12.3992L12.0387 7.68862ZM12.0387 5.52958L12.1777 5.95433L11.8157 5.69116L11.4538 5.95433L11.5927 5.52958L11.2308 5.26641H11.6781L11.815 4.84165L11.9519 5.26641H12.3992L12.0387 5.52958ZM12.0387 3.36984L12.1777 3.79459L11.8157 3.53142L11.4538 3.79459L11.5927 3.36984L11.2308 3.10666H11.6781L11.815 2.68191L11.9519 3.10666H12.3992L12.0387 3.36984ZM13.2995 8.76955L13.4385 9.1943L13.0766 8.93112L12.7125 9.1943L12.8515 8.76955L12.4895 8.50637H12.9369L13.0737 8.08162L13.2127 8.50637H13.6601L13.2995 8.76955ZM13.2995 6.6098L13.4385 7.03456L13.0766 6.77138L12.7146 7.03456L12.8536 6.6098L12.4916 6.34663H12.939L13.0758 5.92188L13.2148 6.34663H13.6622L13.2995 6.6098ZM13.2995 4.44865L13.4385 4.8734L13.0766 4.61023L12.7146 4.8734L12.8536 4.44865L12.4916 4.18548H12.939L13.0758 3.76073L13.2148 4.18548H13.6622L13.2995 4.44865ZM13.2995 2.28891L13.4385 2.71366L13.0766 2.45049L12.7146 2.71366L12.8536 2.28891L12.4895 2.02574H12.9369L13.0744 1.60169L13.2134 2.02644H13.6608L13.2995 2.28891ZM14.6965 10.2752L14.3346 10.012L13.9726 10.2752L14.1095 9.85047L13.7475 9.5873H14.1949L14.3339 9.16255L14.4729 9.5873H14.9202L14.5582 9.85047L14.6965 10.2752ZM14.5597 7.68862L14.6965 8.11548L14.3346 7.85231L13.9726 8.11548L14.1095 7.69073L13.7475 7.42756H14.1949L14.3339 7.00281L14.4729 7.42756H14.9202L14.5597 7.68862ZM14.5597 5.52958L14.6965 5.95433L14.3346 5.69116L13.9726 5.95433L14.1095 5.52958L13.7475 5.26641H14.1949L14.3339 4.84165L14.4729 5.26641H14.9202L14.5597 5.52958ZM14.5597 3.36984L14.6965 3.79459L14.3346 3.53142L13.9726 3.79459L14.1095 3.36984L13.7475 3.10666H14.1949L14.3339 2.68191L14.4729 3.10666H14.9202L14.5597 3.36984ZM15.8184 8.76955L15.9553 9.1943L15.5954 8.93112L15.2335 9.1943L15.3725 8.76955L15.0105 8.50637H15.4578L15.5968 8.08162L15.7337 8.50637H16.181L15.8184 8.76955ZM15.8184 6.6098L15.9553 7.03456L15.5954 6.77138L15.2335 7.03456L15.3704 6.6098L15.0084 6.34663H15.4557L15.5947 5.92188L15.7316 6.34663H16.1789L15.8184 6.6098ZM15.8184 4.44865L15.9553 4.8734L15.5954 4.61305L15.2335 4.87623L15.3725 4.45148L15.0105 4.1883H15.4578L15.5968 3.76355L15.7337 4.1883H16.181L15.8184 4.44865ZM15.8184 2.28891L15.9553 2.71366L15.5954 2.45049L15.2335 2.71366L15.3725 2.28891L15.0084 2.02574H15.4557L15.5947 1.60098L15.7316 2.02574H16.1789L15.8184 2.28891ZM17.2182 10.2752L16.8542 10.012L16.4922 10.2752L16.6291 9.85047L16.2692 9.58518H16.7166L16.8535 9.16043L16.9925 9.58518H17.4398L17.0778 9.85047L17.2182 10.2752ZM17.0785 7.68862L17.2175 8.11337L16.8535 7.85301L16.4915 8.11619L16.6284 7.69144L16.2685 7.42615H16.7159L16.8527 7.00139L16.9917 7.42615H17.4391L17.0785 7.68862ZM17.0785 5.52958L17.2175 5.95433L16.8535 5.69116L16.4915 5.95433L16.6284 5.52958L16.2685 5.26641H16.7159L16.8527 4.84165L16.9917 5.26641H17.4391L17.0785 5.52958ZM17.0785 3.36984L17.2175 3.79459L16.8535 3.53142L16.4915 3.79459L16.6284 3.36984L16.2685 3.10666H16.7159L16.8527 2.68191L16.9917 3.10666H17.4391L17.0785 3.36984ZM17.0785 1.2101L17.2175 1.63485L16.8535 1.37168L16.4915 1.63485L16.6284 1.2101L16.2685 0.946925H16.7159L16.8527 0.520057L16.9917 0.944808H17.4391L17.0785 1.2101Z" fill="#223BAE"/>
<path id="Vector_8" d="M14.2698 0.720459C14.0948 0.79031 13.9212 0.866511 13.7505 0.947652H14.1957L14.2698 0.720459Z" fill="#223BAE"/>
<path id="Vector_9" d="M13.9732 1.63484L14.3352 1.37167L14.6971 1.63484L14.5602 1.21009L14.9222 0.946914H14.4749L14.3867 0.675271C14.3486 0.690794 14.3105 0.704199 14.2724 0.720427L14.1983 0.94762H13.7531L14.115 1.2108L13.9732 1.63484ZM16.854 0.520752L16.7171 0.94762H16.2698L16.6318 1.2108L16.4928 1.63555L16.8547 1.37237L17.2188 1.63555L17.0798 1.2108L17.4418 0.94762H16.9944L16.854 0.520752ZM13.2133 2.02573L13.0743 1.60168L12.9374 2.02643H12.4901L12.8521 2.28961L12.7131 2.71648L13.075 2.45118L13.4391 2.71648L13.3001 2.28961L13.662 2.02643H13.2133V2.02573ZM15.7329 2.02573L15.596 1.60097L15.457 2.02573H15.0097L15.3716 2.2889L15.2348 2.71577L15.5967 2.45048L15.9587 2.71577L15.8197 2.2889L16.1837 2.02573H15.7329ZM11.8163 2.67979L11.6773 3.10665H11.23L11.5919 3.36983L11.455 3.79458L11.817 3.53141L12.1789 3.79458L12.0399 3.36983L12.4019 3.10665H11.9546L11.8163 2.67979ZM14.3352 2.67979L14.1983 3.10665H13.7509L14.1108 3.36983L13.9739 3.79458L14.3359 3.53141L14.6978 3.79458L14.5609 3.36983L14.9229 3.10665H14.4756L14.3352 2.67979ZM16.854 2.67979L16.7171 3.10665H16.2698L16.6318 3.36983L16.4928 3.79458L16.8547 3.53141L17.2188 3.79458L17.0798 3.36983L17.4418 3.10665H16.9944L16.854 2.67979ZM10.6944 4.18547L10.5554 3.76072L10.4164 4.18547H9.96911L10.3311 4.44864L10.1935 4.87551L10.5554 4.61233L10.9174 4.87551L10.7805 4.44864L11.1425 4.18547H10.6944ZM13.2133 4.18547L13.0743 3.76072L12.9374 4.18547H12.4901L12.8521 4.44864L12.7124 4.87551L13.0743 4.61233L13.4384 4.87551L13.2994 4.44864L13.6613 4.18547H13.2133ZM15.7329 4.18547L15.596 3.76072L15.457 4.18547H15.0097L15.3716 4.44864L15.2348 4.87551L15.5967 4.61233L15.9587 4.87551L15.8197 4.44864L16.1837 4.18547H15.7329ZM8.93263 5.95362L9.29459 5.69044L9.65654 5.95362L9.51754 5.52887L9.8795 5.26569H9.43217L9.34186 4.98981C9.24096 5.16268 9.14642 5.34048 9.05681 5.51758L9.07022 5.52675L8.93263 5.95362ZM11.8163 4.83953L11.6773 5.2664H11.23L11.5919 5.52957L11.455 5.95432L11.817 5.69115L12.1789 5.95432L12.0399 5.52957L12.4019 5.2664H11.9546L11.8163 4.83953ZM14.3352 4.83953L14.1983 5.2664H13.7509L14.1108 5.52957L13.9739 5.95432L14.3359 5.69115L14.6978 5.95432L14.5609 5.52957L14.9229 5.2664H14.4756L14.3352 4.83953ZM16.854 4.83953L16.7171 5.2664H16.2698L16.6318 5.52957L16.4928 5.95432L16.8547 5.69115L17.2188 5.95432L17.0798 5.52957L17.4418 5.2664H16.9944L16.854 4.83953ZM10.6944 6.34732L10.5554 5.92046L10.4164 6.34732H9.96911L10.3311 6.6105L10.1935 7.03455L10.5554 6.77137L10.9174 7.03455L10.7805 6.60979L11.1425 6.34662H10.6944V6.34732ZM13.2133 6.34732L13.0743 5.92046L12.9374 6.34732H12.4901L12.8521 6.6105L12.7124 7.03455L13.0743 6.77137L13.4384 7.03455L13.2994 6.60979L13.6613 6.34662H13.2133V6.34732ZM15.7329 6.34732L15.596 5.92046L15.457 6.34732H15.0097L15.3716 6.6105L15.2348 7.03525L15.5967 6.77207L15.9587 7.03525L15.8197 6.6105L16.1837 6.34732H15.7329ZM9.29459 7.00138L9.15771 7.42614H8.71038L9.07233 7.68931L8.93334 8.11618L9.29529 7.853L9.65936 8.11618L9.52037 7.68931L9.88232 7.42614H9.43499L9.29459 7.00138ZM11.8163 7.00138L11.6773 7.42614H11.23L11.5919 7.68931L11.455 8.11618L11.817 7.853L12.1789 8.11618L12.0399 7.68931L12.4019 7.42614H11.9546L11.8163 7.00138ZM14.3352 7.00138L14.1983 7.42614H13.7509L14.1108 7.68931L13.9739 8.11618L14.3359 7.853L14.6978 8.11618L14.5609 7.68931L14.9229 7.42614H14.4756L14.3352 7.00138ZM16.854 7.00138L16.7171 7.42614H16.2698L16.6318 7.68931L16.4928 8.11618L16.8547 7.853L17.2188 8.11618L17.0798 7.68931L17.4418 7.42614H16.9944L16.854 7.00138ZM8.39852 9.19429L8.25952 8.76953L8.62147 8.50636H8.17344L8.1304 8.37583C8.09865 8.56492 8.07396 8.75331 8.0542 8.94452L8.39852 9.19429ZM10.6944 8.50636L10.5554 8.07949L10.4164 8.50636H9.96911L10.3311 8.76953L10.1942 9.19429L10.5561 8.93111L10.9181 9.19429L10.7812 8.76953L11.1432 8.50636H10.6944ZM13.2133 8.50636L13.0743 8.07949L12.9374 8.50636H12.4901L12.8521 8.76953L12.7131 9.19429L13.075 8.93111L13.4391 9.19429L13.3001 8.76953L13.662 8.50636H13.2133ZM15.7329 8.50636L15.596 8.07949L15.457 8.50636H15.0097L15.3716 8.76953L15.2348 9.19429L15.5967 8.93111L15.9587 9.19429L15.8197 8.76953L16.1837 8.50636H15.7329ZM9.43429 9.58517L9.29529 9.16042L9.15841 9.58517H8.71108L9.07304 9.85046L8.93404 10.2752L9.296 10.012L9.66007 10.2752L9.52107 9.85046L9.88303 9.58517H9.43429ZM11.9532 9.58517L11.8163 9.16042L11.6773 9.58517H11.23L11.5919 9.85046L11.455 10.2752L11.817 10.012L12.1789 10.2752L12.0399 9.85046L12.4019 9.58517H11.9532ZM14.4742 9.58517L14.3352 9.16042L14.1983 9.58517H13.7509L14.1108 9.85046L13.9739 10.2752L14.3359 10.012L14.6978 10.2752L14.5609 9.85046L14.9229 9.58517H14.4742ZM16.993 9.58517L16.854 9.16042L16.7171 9.58517H16.2698L16.6318 9.85046L16.4928 10.2752L16.8547 10.012L17.2188 10.2752L17.0798 9.85046L17.4418 9.58517H16.993Z" fill="white"/>
</g>
</g>
<defs>
<clipPath id="clip0_6266_1636">
<rect width="20" height="20" fill="white"/>
</clipPath>
<clipPath id="clip1_6266_1636">
<rect width="20" height="20" fill="white" transform="translate(8)"/>
</clipPath>
</defs>
</svg>
