<svg width="16" height="16" viewBox="0 0 16 16" fill="none" xmlns="http://www.w3.org/2000/svg">
<g id="US">
<g clip-path="url(#clip0_6633_4405)">
<path id="Vector" d="M0 0H9.77778V9.77778H0V0Z" fill="#1E88E9"/>
<path id="Vector_2" d="M9.77778 0V3.55556H16V0H9.77778ZM9.77778 6.22222V9.77778H16V6.22222H9.77778ZM0 12.4444V16H16V12.4444H0Z" fill="#EF5350"/>
<path id="Vector_3" d="M9.77778 3.55566V6.22233H16V3.55566H9.77778ZM0 9.77789V12.4446H16V9.77789H0Z" fill="#F8F9FD"/>
<path id="Vector_4" d="M2.15116 1.08437C2.15789 1.07131 2.16809 1.06035 2.18063 1.05271C2.19317 1.04506 2.20758 1.04102 2.22227 1.04102C2.23696 1.04102 2.25137 1.04506 2.26391 1.05271C2.27646 1.06035 2.28665 1.07131 2.29338 1.08437L2.53338 1.71548C2.54227 1.75103 2.57783 1.76881 2.60449 1.76881L3.28005 1.80437C3.35116 1.80437 3.37783 1.89325 3.32449 1.94659L2.79116 2.36437C2.77955 2.37564 2.77164 2.39018 2.76847 2.40605C2.76529 2.42192 2.76701 2.43838 2.77338 2.45325L2.95116 3.09325C2.95657 3.10949 2.95664 3.12703 2.95135 3.1433C2.94606 3.15957 2.93569 3.17372 2.92177 3.18366C2.90784 3.19361 2.8911 3.19882 2.87399 3.19855C2.85688 3.19828 2.84031 3.19253 2.82671 3.18214L2.26671 2.8177C2.25356 2.80891 2.23809 2.80422 2.22227 2.80422C2.20645 2.80422 2.19098 2.80891 2.17783 2.8177L1.61783 3.18214C1.60423 3.19253 1.58766 3.19828 1.57055 3.19855C1.55344 3.19882 1.5367 3.19361 1.52277 3.18366C1.50885 3.17372 1.49848 3.15957 1.49319 3.1433C1.4879 3.12703 1.48797 3.10949 1.49338 3.09325L1.67116 2.44437C1.67651 2.42862 1.67681 2.41159 1.67203 2.39566C1.66725 2.37973 1.65763 2.36568 1.64449 2.35548L1.12005 1.94659C1.10749 1.93652 1.09826 1.9229 1.09357 1.90751C1.08887 1.89212 1.08893 1.87567 1.09373 1.86031C1.09853 1.84495 1.10785 1.83139 1.12047 1.82141C1.1331 1.81143 1.14844 1.80549 1.16449 1.80437L1.84005 1.76881C1.86671 1.76881 1.90227 1.75103 1.91116 1.71548L2.15116 1.09325V1.08437ZM2.15116 3.75103C2.15789 3.73797 2.16809 3.72702 2.18063 3.71937C2.19317 3.71173 2.20758 3.70768 2.22227 3.70768C2.23696 3.70768 2.25137 3.71173 2.26391 3.71937C2.27646 3.72702 2.28665 3.73797 2.29338 3.75103L2.53338 4.38214C2.54227 4.4177 2.57783 4.43548 2.60449 4.43548L3.28005 4.47103C3.35116 4.47103 3.37783 4.55992 3.32449 4.61325L2.79116 5.03103C2.77955 5.04231 2.77164 5.05685 2.76847 5.07272C2.76529 5.08859 2.76701 5.10505 2.77338 5.11992L2.95116 5.75992C2.95657 5.77615 2.95664 5.79369 2.95135 5.80996C2.94606 5.82624 2.93569 5.84038 2.92177 5.85033C2.90784 5.86027 2.8911 5.86549 2.87399 5.86522C2.85688 5.86495 2.84031 5.85919 2.82671 5.84881L2.26671 5.48437C2.25356 5.47558 2.23809 5.47088 2.22227 5.47088C2.20645 5.47088 2.19098 5.47558 2.17783 5.48437L1.61783 5.84881C1.60423 5.85919 1.58766 5.86495 1.57055 5.86522C1.55344 5.86549 1.5367 5.86027 1.52277 5.85033C1.50885 5.84038 1.49848 5.82624 1.49319 5.80996C1.4879 5.79369 1.48797 5.77615 1.49338 5.75992L1.67116 5.11103C1.67651 5.09528 1.67681 5.07826 1.67203 5.06233C1.66725 5.04639 1.65763 5.03235 1.64449 5.02214L1.12005 4.61325C1.10749 4.60319 1.09826 4.58957 1.09357 4.57418C1.08887 4.55879 1.08893 4.54233 1.09373 4.52697C1.09853 4.51161 1.10785 4.49806 1.12047 4.48808C1.1331 4.4781 1.14844 4.47216 1.16449 4.47103L1.84005 4.43548C1.86671 4.43548 1.90227 4.4177 1.91116 4.38214L2.15116 3.75992V3.75103ZM2.15116 6.4177C2.15789 6.40464 2.16809 6.39369 2.18063 6.38604C2.19317 6.37839 2.20758 6.37435 2.22227 6.37435C2.23696 6.37435 2.25137 6.37839 2.26391 6.38604C2.27646 6.39369 2.28665 6.40464 2.29338 6.4177L2.53338 7.04881C2.54227 7.08437 2.57783 7.10214 2.60449 7.10214L3.28005 7.1377C3.35116 7.1377 3.37783 7.22659 3.32449 7.27992L2.79116 7.6977C2.77955 7.70898 2.77164 7.72351 2.76847 7.73938C2.76529 7.75525 2.76701 7.77171 2.77338 7.78659L2.95116 8.42659C2.95657 8.44282 2.95664 8.46036 2.95135 8.47663C2.94606 8.4929 2.93569 8.50705 2.92177 8.51699C2.90784 8.52694 2.8911 8.53216 2.87399 8.53188C2.85688 8.53161 2.84031 8.52586 2.82671 8.51548L2.26671 8.15103C2.25356 8.14224 2.23809 8.13755 2.22227 8.13755C2.20645 8.13755 2.19098 8.14224 2.17783 8.15103L1.61783 8.51548C1.60423 8.52586 1.58766 8.53161 1.57055 8.53188C1.55344 8.53216 1.5367 8.52694 1.52277 8.51699C1.50885 8.50705 1.49848 8.4929 1.49319 8.47663C1.4879 8.46036 1.48797 8.44282 1.49338 8.42659L1.67116 7.7777C1.67651 7.76195 1.67681 7.74492 1.67203 7.72899C1.66725 7.71306 1.65763 7.69902 1.64449 7.68881L1.12005 7.27992C1.10749 7.26985 1.09826 7.25624 1.09357 7.24084C1.08887 7.22545 1.08893 7.209 1.09373 7.19364C1.09853 7.17828 1.10785 7.16473 1.12047 7.15475C1.1331 7.14477 1.14844 7.13882 1.16449 7.1377L1.84005 7.10214C1.86671 7.10214 1.90227 7.08437 1.91116 7.04881L2.15116 6.42659V6.4177ZM4.81783 1.08437C4.82456 1.07131 4.83475 1.06035 4.8473 1.05271C4.85984 1.04506 4.87425 1.04102 4.88894 1.04102C4.90363 1.04102 4.91803 1.04506 4.93058 1.05271C4.94312 1.06035 4.95332 1.07131 4.96005 1.08437L5.20005 1.71548C5.20894 1.75103 5.24449 1.76881 5.27116 1.76881L5.94672 1.80437C6.01783 1.80437 6.04449 1.89325 5.99116 1.94659L5.45783 2.36437C5.44622 2.37564 5.43831 2.39018 5.43513 2.40605C5.43196 2.42192 5.43367 2.43838 5.44005 2.45325L5.61783 3.09325C5.62324 3.10949 5.6233 3.12703 5.61801 3.1433C5.61272 3.15957 5.60236 3.17372 5.58843 3.18366C5.57451 3.19361 5.55777 3.19882 5.54066 3.19855C5.52355 3.19828 5.50698 3.19253 5.49338 3.18214L4.93338 2.8177C4.92023 2.80891 4.90476 2.80422 4.88894 2.80422C4.87312 2.80422 4.85765 2.80891 4.84449 2.8177L4.28449 3.18214C4.27089 3.19253 4.25432 3.19828 4.23722 3.19855C4.22011 3.19882 4.20336 3.19361 4.18944 3.18366C4.17552 3.17372 4.16515 3.15957 4.15986 3.1433C4.15457 3.12703 4.15464 3.10949 4.16005 3.09325L4.33783 2.44437C4.34317 2.42862 4.34348 2.41159 4.3387 2.39566C4.33392 2.37973 4.32429 2.36568 4.31116 2.35548L3.78671 1.94659C3.77416 1.93652 3.76493 1.9229 3.76024 1.90751C3.75554 1.89212 3.7556 1.87567 3.7604 1.86031C3.7652 1.84495 3.77452 1.83139 3.78714 1.82141C3.79977 1.81143 3.81511 1.80549 3.83116 1.80437L4.50671 1.76881C4.53338 1.76881 4.56894 1.75103 4.57783 1.71548L4.81783 1.09325V1.08437ZM4.81783 3.75103C4.82456 3.73797 4.83475 3.72702 4.8473 3.71937C4.85984 3.71173 4.87425 3.70768 4.88894 3.70768C4.90363 3.70768 4.91803 3.71173 4.93058 3.71937C4.94312 3.72702 4.95332 3.73797 4.96005 3.75103L5.20005 4.38214C5.20894 4.4177 5.24449 4.43548 5.27116 4.43548L5.94672 4.47103C6.01783 4.47103 6.04449 4.55992 5.99116 4.61325L5.45783 5.03103C5.44622 5.04231 5.43831 5.05685 5.43513 5.07272C5.43196 5.08859 5.43367 5.10505 5.44005 5.11992L5.61783 5.75992C5.62324 5.77615 5.6233 5.79369 5.61801 5.80996C5.61272 5.82624 5.60236 5.84038 5.58843 5.85033C5.57451 5.86027 5.55777 5.86549 5.54066 5.86522C5.52355 5.86495 5.50698 5.85919 5.49338 5.84881L4.93338 5.48437C4.92023 5.47558 4.90476 5.47088 4.88894 5.47088C4.87312 5.47088 4.85765 5.47558 4.84449 5.48437L4.28449 5.84881C4.27089 5.85919 4.25432 5.86495 4.23722 5.86522C4.22011 5.86549 4.20336 5.86027 4.18944 5.85033C4.17552 5.84038 4.16515 5.82624 4.15986 5.80996C4.15457 5.79369 4.15464 5.77615 4.16005 5.75992L4.33783 5.11103C4.34317 5.09528 4.34348 5.07826 4.3387 5.06233C4.33392 5.04639 4.32429 5.03235 4.31116 5.02214L3.78671 4.61325C3.77416 4.60319 3.76493 4.58957 3.76024 4.57418C3.75554 4.55879 3.7556 4.54233 3.7604 4.52697C3.7652 4.51161 3.77452 4.49806 3.78714 4.48808C3.79977 4.4781 3.81511 4.47216 3.83116 4.47103L4.50671 4.43548C4.53338 4.43548 4.56894 4.4177 4.57783 4.38214L4.81783 3.75992V3.75103ZM4.81783 6.4177C4.82456 6.40464 4.83475 6.39369 4.8473 6.38604C4.85984 6.37839 4.87425 6.37435 4.88894 6.37435C4.90363 6.37435 4.91803 6.37839 4.93058 6.38604C4.94312 6.39369 4.95332 6.40464 4.96005 6.4177L5.20005 7.04881C5.20894 7.08437 5.24449 7.10214 5.27116 7.10214L5.94672 7.1377C6.01783 7.1377 6.04449 7.22659 5.99116 7.27992L5.45783 7.6977C5.44622 7.70898 5.43831 7.72351 5.43513 7.73938C5.43196 7.75525 5.43367 7.77171 5.44005 7.78659L5.61783 8.42659C5.62324 8.44282 5.6233 8.46036 5.61801 8.47663C5.61272 8.4929 5.60236 8.50705 5.58843 8.51699C5.57451 8.52694 5.55777 8.53216 5.54066 8.53188C5.52355 8.53161 5.50698 8.52586 5.49338 8.51548L4.93338 8.15103C4.92023 8.14224 4.90476 8.13755 4.88894 8.13755C4.87312 8.13755 4.85765 8.14224 4.84449 8.15103L4.28449 8.51548C4.27089 8.52586 4.25432 8.53161 4.23722 8.53188C4.22011 8.53216 4.20336 8.52694 4.18944 8.51699C4.17552 8.50705 4.16515 8.4929 4.15986 8.47663C4.15457 8.46036 4.15464 8.44282 4.16005 8.42659L4.33783 7.7777C4.34317 7.76195 4.34348 7.74492 4.3387 7.72899C4.33392 7.71306 4.32429 7.69902 4.31116 7.68881L3.78671 7.27992C3.77416 7.26985 3.76493 7.25624 3.76024 7.24084C3.75554 7.22545 3.7556 7.209 3.7604 7.19364C3.7652 7.17828 3.77452 7.16473 3.78714 7.15475C3.79977 7.14477 3.81511 7.13882 3.83116 7.1377L4.50671 7.10214C4.53338 7.10214 4.56894 7.08437 4.57783 7.04881L4.81783 6.42659V6.4177ZM7.48449 1.08437C7.49122 1.07131 7.50142 1.06035 7.51396 1.05271C7.52651 1.04506 7.54091 1.04102 7.5556 1.04102C7.57029 1.04102 7.5847 1.04506 7.59725 1.05271C7.60979 1.06035 7.61998 1.07131 7.62671 1.08437L7.86672 1.71548C7.8756 1.75103 7.91116 1.76881 7.93783 1.76881L8.61338 1.80437C8.68449 1.80437 8.71116 1.89325 8.65783 1.94659L8.12449 2.36437C8.11289 2.37564 8.10497 2.39018 8.1018 2.40605C8.09863 2.42192 8.10034 2.43838 8.10671 2.45325L8.28449 3.09325C8.28991 3.10949 8.28997 3.12703 8.28468 3.1433C8.27939 3.15957 8.26902 3.17372 8.2551 3.18366C8.24118 3.19361 8.22443 3.19882 8.20732 3.19855C8.19022 3.19828 8.17365 3.19253 8.16005 3.18214L7.60005 2.8177C7.58689 2.80891 7.57143 2.80422 7.5556 2.80422C7.53978 2.80422 7.52431 2.80891 7.51116 2.8177L6.95116 3.18214C6.93756 3.19253 6.92099 3.19828 6.90388 3.19855C6.88678 3.19882 6.87003 3.19361 6.85611 3.18366C6.84218 3.17372 6.83182 3.15957 6.82653 3.1433C6.82124 3.12703 6.8213 3.10949 6.82671 3.09325L7.00449 2.44437C7.00984 2.42862 7.01015 2.41159 7.00537 2.39566C7.00059 2.37973 6.99096 2.36568 6.97783 2.35548L6.45338 1.94659C6.44083 1.93652 6.4316 1.9229 6.4269 1.90751C6.42221 1.89212 6.42226 1.87567 6.42706 1.86031C6.43186 1.84495 6.44118 1.83139 6.45381 1.82141C6.46643 1.81143 6.48177 1.80549 6.49783 1.80437L7.17338 1.76881C7.20005 1.76881 7.2356 1.75103 7.24449 1.71548L7.48449 1.09325V1.08437ZM7.48449 3.75103C7.49122 3.73797 7.50142 3.72702 7.51396 3.71937C7.52651 3.71173 7.54091 3.70768 7.5556 3.70768C7.57029 3.70768 7.5847 3.71173 7.59725 3.71937C7.60979 3.72702 7.61998 3.73797 7.62671 3.75103L7.86672 4.38214C7.8756 4.4177 7.91116 4.43548 7.93783 4.43548L8.61338 4.47103C8.68449 4.47103 8.71116 4.55992 8.65783 4.61325L8.12449 5.03103C8.11289 5.04231 8.10497 5.05685 8.1018 5.07272C8.09863 5.08859 8.10034 5.10505 8.10671 5.11992L8.28449 5.75992C8.28991 5.77615 8.28997 5.79369 8.28468 5.80996C8.27939 5.82624 8.26902 5.84038 8.2551 5.85033C8.24118 5.86027 8.22443 5.86549 8.20732 5.86522C8.19022 5.86495 8.17365 5.85919 8.16005 5.84881L7.60005 5.48437C7.58689 5.47558 7.57143 5.47088 7.5556 5.47088C7.53978 5.47088 7.52431 5.47558 7.51116 5.48437L6.95116 5.84881C6.93756 5.85919 6.92099 5.86495 6.90388 5.86522C6.88678 5.86549 6.87003 5.86027 6.85611 5.85033C6.84218 5.84038 6.83182 5.82624 6.82653 5.80996C6.82124 5.79369 6.8213 5.77615 6.82671 5.75992L7.00449 5.11103C7.00984 5.09528 7.01015 5.07826 7.00537 5.06233C7.00059 5.04639 6.99096 5.03235 6.97783 5.02214L6.45338 4.61325C6.44083 4.60319 6.4316 4.58957 6.4269 4.57418C6.42221 4.55879 6.42226 4.54233 6.42706 4.52697C6.43186 4.51161 6.44118 4.49806 6.45381 4.48808C6.46643 4.4781 6.48177 4.47216 6.49783 4.47103L7.17338 4.43548C7.20005 4.43548 7.2356 4.4177 7.24449 4.38214L7.48449 3.75992V3.75103ZM7.48449 6.4177C7.49122 6.40464 7.50142 6.39369 7.51396 6.38604C7.52651 6.37839 7.54091 6.37435 7.5556 6.37435C7.57029 6.37435 7.5847 6.37839 7.59725 6.38604C7.60979 6.39369 7.61998 6.40464 7.62671 6.4177L7.86672 7.04881C7.8756 7.08437 7.91116 7.10214 7.93783 7.10214L8.61338 7.1377C8.68449 7.1377 8.71116 7.22659 8.65783 7.27992L8.12449 7.6977C8.11289 7.70898 8.10497 7.72351 8.1018 7.73938C8.09863 7.75525 8.10034 7.77171 8.10671 7.78659L8.28449 8.42659C8.28991 8.44282 8.28997 8.46036 8.28468 8.47663C8.27939 8.4929 8.26902 8.50705 8.2551 8.51699C8.24118 8.52694 8.22443 8.53216 8.20732 8.53188C8.19022 8.53161 8.17365 8.52586 8.16005 8.51548L7.60005 8.15103C7.58689 8.14224 7.57143 8.13755 7.5556 8.13755C7.53978 8.13755 7.52431 8.14224 7.51116 8.15103L6.95116 8.51548C6.93756 8.52586 6.92099 8.53161 6.90388 8.53188C6.88678 8.53216 6.87003 8.52694 6.85611 8.51699C6.84218 8.50705 6.83182 8.4929 6.82653 8.47663C6.82124 8.46036 6.8213 8.44282 6.82671 8.42659L7.00449 7.7777C7.00984 7.76195 7.01015 7.74492 7.00537 7.72899C7.00059 7.71306 6.99096 7.69902 6.97783 7.68881L6.45338 7.27992C6.44083 7.26985 6.4316 7.25624 6.4269 7.24084C6.42221 7.22545 6.42226 7.209 6.42706 7.19364C6.43186 7.17828 6.44118 7.16473 6.45381 7.15475C6.46643 7.14477 6.48177 7.13882 6.49783 7.1377L7.17338 7.10214C7.20005 7.10214 7.2356 7.08437 7.24449 7.04881L7.48449 6.42659V6.4177Z" fill="#F8F9FD"/>
</g>
</g>
<defs>
<clipPath id="clip0_6633_4405">
<rect width="16" height="16" rx="8" fill="white"/>
</clipPath>
</defs>
</svg>
