<svg width="16" height="16" viewBox="0 0 16 16" fill="none" xmlns="http://www.w3.org/2000/svg">
<g id="Frame" clip-path="url(#clip0_6620_21169)">
<path id="Vector" d="M0 8C0 12.4182 3.58182 16 8 16C12.4182 16 16 12.4182 16 8C16 3.58182 12.4182 0 8 0C3.58182 0 0 3.58182 0 8Z" fill="#F19E26"/>
<path id="Vector_2" d="M12.1014 10.2593C11.8474 9.75263 11.5934 8.57196 11.318 8.06596C11.2334 7.89663 11.106 7.81263 10.916 7.81263H9.58203C9.49988 7.80896 9.41839 7.82885 9.34716 7.86995C9.27594 7.91105 9.21795 7.97166 9.18003 8.04463C8.92603 8.55063 8.6507 9.7313 8.3967 10.238C8.22736 10.5546 8.41736 10.9553 8.82003 10.9553C9.32803 10.9346 9.6667 10.9553 10.1747 10.9553H11.678C11.7414 10.9553 11.826 10.9553 11.8894 10.9346C12.1227 10.8286 12.228 10.5333 12.1014 10.2593ZM9.7367 7.12196C9.99136 7.01663 10.0767 6.7213 9.9487 6.44663C9.69403 5.94063 9.43936 4.75996 9.16336 4.2533C9.0787 4.08463 8.9507 3.99996 8.76003 3.99996H7.2527C7.17035 3.9962 7.08864 4.01603 7.01719 4.05713C6.94573 4.09823 6.88751 4.15889 6.84936 4.23196C6.59403 4.73863 6.31803 5.9193 6.06336 6.4253C5.89336 6.74196 6.0847 7.1433 6.48803 7.1433C6.99803 7.12196 7.50736 7.1433 8.0167 7.1433H9.52403C9.58803 7.1433 9.65136 7.1433 9.7367 7.12196ZM6.8247 8.0653C6.74003 7.89663 6.61336 7.81196 6.4227 7.81196H5.0907C5.00846 7.80827 4.92689 7.82822 4.85564 7.86946C4.7844 7.91069 4.72646 7.97148 4.6887 8.04463C4.43536 8.55063 4.16003 9.7313 3.90603 10.238C3.73736 10.5546 3.92736 10.9553 4.32936 10.9553C4.8367 10.9346 5.34403 10.9553 5.85203 10.9553H7.18403C7.24736 10.9553 7.33203 10.9553 7.39603 10.9346C7.64936 10.8286 7.73403 10.5333 7.60736 10.2593C7.35403 9.75263 7.09936 8.57196 6.8247 8.06596V8.0653Z" fill="white"/>
</g>
<defs>
<clipPath id="clip0_6620_21169">
<rect width="16" height="16" fill="white"/>
</clipPath>
</defs>
</svg>
