<svg width="20" height="20" viewBox="0 0 20 20" fill="none" xmlns="http://www.w3.org/2000/svg">
<g id="Group 4">
<rect id="Rectangle 44" width="20" height="20" rx="10" fill="#4844B8"/>
<g id="Frame" clip-path="url(#clip0_6266_1629)">
<path id="Vector" d="M14.9797 11.6822C15.2426 11.5244 15.7806 11.3958 15.9944 11.7202C16.0384 11.7886 15.886 12.042 15.6728 12.2198C15.2342 12.5831 13.2351 14.25 12.4593 14.3622C11.6831 14.4751 9.43595 14.2289 9.02906 14.3133C8.6224 14.3975 8.13351 14.6775 8.13351 14.6775L7.86729 14.6984L5.87329 12.9342L5.82218 12.7364C5.82218 12.7364 7.18973 11.4902 8.12618 11.4275C9.06173 11.3649 11.8455 11.5526 12.46 11.5735C13.0742 11.5951 13.1528 12.1304 12.608 12.1931C12.0022 12.262 10.1893 12.3598 10.0393 12.4006C9.88951 12.4418 9.5204 12.8231 10.4671 12.9118C11.3033 12.9902 12.4793 13.076 12.9137 13.0206C13.352 12.966 14.5737 11.9244 14.98 11.682L14.9797 11.6822ZM5.41973 13.0749C5.60373 13.24 7.1904 14.6382 7.35284 14.7858C7.51529 14.9333 7.53618 15.1191 7.30284 15.2818C7.06929 15.4444 6.70506 15.7562 6.54773 15.888C6.3904 16.0198 6.17529 16.0413 5.96618 15.8364C5.75684 15.6313 4.34329 14.3246 4.21195 14.2013C4.0804 14.0769 3.87551 13.8126 4.10662 13.6546C4.25618 13.5518 4.7784 13.1473 4.90395 13.0484C5.02973 12.9484 5.2364 12.9091 5.41951 13.0749H5.41973Z" fill="white"/>
<path id="Vector_2" d="M12.2515 7.03667C11.4164 7.03667 10.7393 6.35689 10.7393 5.51844C10.7393 4.67978 11.4164 4 12.2515 4C13.0866 4 13.7637 4.68 13.7637 5.51844C13.7637 6.35689 13.0866 7.03667 12.2515 7.03667Z" fill="white"/>
<path id="Vector_3" d="M6.87469 8.04879C6.22491 8.04879 5.69824 7.52012 5.69824 6.8679C5.69824 6.21568 6.22491 5.68701 6.87446 5.68701C7.52424 5.68701 8.05069 6.2159 8.05069 6.8679C8.05069 7.52012 7.52402 8.04879 6.87469 8.04879ZM9.89891 9.7359C9.43513 9.7359 9.05891 9.35812 9.05891 8.89235C9.05868 8.7818 9.08022 8.67229 9.1223 8.57008C9.16439 8.46786 9.2262 8.37493 9.3042 8.2966C9.3822 8.21827 9.47487 8.15607 9.57691 8.11355C9.67895 8.07103 9.78837 8.04902 9.89891 8.04879C10.3629 8.04879 10.7389 8.42657 10.7389 8.89235C10.7391 9.00289 10.7176 9.1124 10.6755 9.21462C10.6334 9.31683 10.5716 9.40976 10.4936 9.48809C10.4156 9.56642 10.3229 9.62863 10.2209 9.67114C10.1189 9.71366 10.0095 9.73567 9.89891 9.7359Z" fill="white"/>
</g>
</g>
<defs>
<clipPath id="clip0_6266_1629">
<rect width="12" height="12" fill="white" transform="translate(4 4)"/>
</clipPath>
</defs>
</svg>
